<svg width="512" height="512" viewBox="0 0 512 512" fill="none" xmlns="http://www.w3.org/2000/svg">
<path d="M191.415 252.266L250.398 135.001H307.124L230.374 287.999L205.81 334.422H175.967L131.027 250.159V376.553H58V135.001H131.027L191.415 252.266ZM376.463 135C404.55 135 426.903 140.372 443.521 151.114L432.988 203.82C418.243 197.778 402.911 194.756 386.995 194.756C367.802 194.756 352.705 200.24 341.704 211.206C330.703 222.172 325.203 237.391 325.203 256.862C325.203 276.557 330.119 291.888 339.949 302.854C350.014 313.821 362.77 319.305 378.218 319.305C383.835 319.305 388.517 318.857 392.262 317.962V260.556L453.001 253.841V358.918C439.66 364.737 426.084 369.101 412.274 372.011C398.465 374.92 385.006 376.375 371.898 376.375C346.62 376.375 324.618 371.451 305.894 361.604C287.403 351.756 273.008 338.104 262.709 320.647C260.886 317.558 259.226 314.383 257.726 311.125L344.659 138.049C354.662 136.016 365.264 135 376.463 135Z" fill="white"/>
</svg>
